<svg width="32" height="32" viewBox="0 0 32 32" fill="none" xmlns="http://www.w3.org/2000/svg">
<g clip-path="url(#clip0_628_912)">
<path d="M10.001 29.5C11.3817 29.5 12.501 28.3807 12.501 27C12.501 25.6193 11.3817 24.5 10.001 24.5C8.62026 24.5 7.50098 25.6193 7.50098 27C7.50098 28.3807 8.62026 29.5 10.001 29.5Z" fill="#898AA6"/>
<path d="M23 29.5C24.3807 29.5 25.5 28.3807 25.5 27C25.5 25.6193 24.3807 24.5 23 24.5C21.6193 24.5 20.5 25.6193 20.5 27C20.5 28.3807 21.6193 29.5 23 29.5Z" fill="#898AA6"/>
<path d="M5.28572 9H27.7143L24.7002 19.5494C24.5808 19.9673 24.3285 20.335 23.9815 20.5967C23.6345 20.8584 23.2117 21 22.7771 21H10.2229C9.78827 21 9.36548 20.8584 9.0185 20.5967C8.67152 20.335 8.41924 19.9673 8.29984 19.5494L4.06436 4.72528C4.00466 4.51633 3.87853 4.33251 3.70504 4.20165C3.53155 4.07079 3.32015 4 3.10284 4H1.5" stroke="#898AA6" stroke-width="2" stroke-linecap="round" stroke-linejoin="round"/>
</g>
<defs>
<clipPath id="clip0_628_912">
<rect width="32" height="32" fill="white"/>
</clipPath>
</defs>
</svg>
